<svg width="29" height="29" viewBox="0 0 29 29" fill="none" xmlns="http://www.w3.org/2000/svg">
<path fill-rule="evenodd" clip-rule="evenodd" d="M2.41675 14.4998C2.41675 7.8264 7.82664 2.4165 14.5001 2.4165C17.7048 2.4165 20.7782 3.68957 23.0443 5.95563C25.3104 8.22169 26.5834 11.2951 26.5834 14.4998C26.5834 21.1733 21.1735 26.5832 14.5001 26.5832C7.82664 26.5832 2.41675 21.1733 2.41675 14.4998ZM18.4169 17.1703C18.4169 17.01 18.3506 16.857 18.2338 16.7473L15.9984 14.4998L18.2338 12.2523C18.3506 12.1427 18.4169 11.9896 18.4169 11.8294C18.4169 11.6692 18.3506 11.5161 18.2338 11.4065L17.5934 10.7661C17.4838 10.6493 17.3307 10.583 17.1705 10.583C17.0103 10.583 16.8572 10.6493 16.7476 10.7661L14.5001 13.0015L12.2526 10.7661C12.1429 10.6493 11.9899 10.583 11.8297 10.583C11.6695 10.583 11.5164 10.6493 11.4067 10.7661L10.7663 11.4065C10.6495 11.5161 10.5832 11.6692 10.5832 11.8294C10.5832 11.9896 10.6495 12.1427 10.7663 12.2523L13.0017 14.4998L10.7663 16.7473C10.6495 16.857 10.5832 17.01 10.5832 17.1703C10.5832 17.3305 10.6495 17.4835 10.7663 17.5932L11.4067 18.2336C11.5164 18.3504 11.6695 18.4167 11.8297 18.4167C11.9899 18.4167 12.1429 18.3504 12.2526 18.2336L14.5001 15.9982L16.7476 18.2336C16.8572 18.3504 17.0103 18.4167 17.1705 18.4167C17.3307 18.4167 17.4838 18.3504 17.5934 18.2336L18.2338 17.5932C18.3506 17.4835 18.4169 17.3305 18.4169 17.1703Z" fill="#101828"/>
</svg>
